# Water bottle mesh for MuJoCo simulation
# 866 vertices, 1728 faces
# Height: 0.140m, Body radius: 0.020m, Neck radius: 0.011m
# Centered at origin (z from -0.070 to 0.070)

v 0.000000 0.000000 -0.070000
v 0.017000 0.000000 -0.070000
v 0.016673 0.003317 -0.070000
v 0.015706 0.006506 -0.070000
v 0.014135 0.009445 -0.070000
v 0.012021 0.012021 -0.070000
v 0.009445 0.014135 -0.070000
v 0.006506 0.015706 -0.070000
v 0.003317 0.016673 -0.070000
v 0.000000 0.017000 -0.070000
v -0.003317 0.016673 -0.070000
v -0.006506 0.015706 -0.070000
v -0.009445 0.014135 -0.070000
v -0.012021 0.012021 -0.070000
v -0.014135 0.009445 -0.070000
v -0.015706 0.006506 -0.070000
v -0.016673 0.003317 -0.070000
v -0.017000 0.000000 -0.070000
v -0.016673 -0.003317 -0.070000
v -0.015706 -0.006506 -0.070000
v -0.014135 -0.009445 -0.070000
v -0.012021 -0.012021 -0.070000
v -0.009445 -0.014135 -0.070000
v -0.006506 -0.015706 -0.070000
v -0.003317 -0.016673 -0.070000
v -0.000000 -0.017000 -0.070000
v 0.003317 -0.016673 -0.070000
v 0.006506 -0.015706 -0.070000
v 0.009445 -0.014135 -0.070000
v 0.012021 -0.012021 -0.070000
v 0.014135 -0.009445 -0.070000
v 0.015706 -0.006506 -0.070000
v 0.016673 -0.003317 -0.070000
v 0.019000 0.000000 -0.068000
v 0.018635 0.003707 -0.068000
v 0.017554 0.007271 -0.068000
v 0.015798 0.010556 -0.068000
v 0.013435 0.013435 -0.068000
v 0.010556 0.015798 -0.068000
v 0.007271 0.017554 -0.068000
v 0.003707 0.018635 -0.068000
v 0.000000 0.019000 -0.068000
v -0.003707 0.018635 -0.068000
v -0.007271 0.017554 -0.068000
v -0.010556 0.015798 -0.068000
v -0.013435 0.013435 -0.068000
v -0.015798 0.010556 -0.068000
v -0.017554 0.007271 -0.068000
v -0.018635 0.003707 -0.068000
v -0.019000 0.000000 -0.068000
v -0.018635 -0.003707 -0.068000
v -0.017554 -0.007271 -0.068000
v -0.015798 -0.010556 -0.068000
v -0.013435 -0.013435 -0.068000
v -0.010556 -0.015798 -0.068000
v -0.007271 -0.017554 -0.068000
v -0.003707 -0.018635 -0.068000
v -0.000000 -0.019000 -0.068000
v 0.003707 -0.018635 -0.068000
v 0.007271 -0.017554 -0.068000
v 0.010556 -0.015798 -0.068000
v 0.013435 -0.013435 -0.068000
v 0.015798 -0.010556 -0.068000
v 0.017554 -0.007271 -0.068000
v 0.018635 -0.003707 -0.068000
v 0.017000 0.000000 -0.065000
v 0.016673 0.003317 -0.065000
v 0.015706 0.006506 -0.065000
v 0.014135 0.009445 -0.065000
v 0.012021 0.012021 -0.065000
v 0.009445 0.014135 -0.065000
v 0.006506 0.015706 -0.065000
v 0.003317 0.016673 -0.065000
v 0.000000 0.017000 -0.065000
v -0.003317 0.016673 -0.065000
v -0.006506 0.015706 -0.065000
v -0.009445 0.014135 -0.065000
v -0.012021 0.012021 -0.065000
v -0.014135 0.009445 -0.065000
v -0.015706 0.006506 -0.065000
v -0.016673 0.003317 -0.065000
v -0.017000 0.000000 -0.065000
v -0.016673 -0.003317 -0.065000
v -0.015706 -0.006506 -0.065000
v -0.014135 -0.009445 -0.065000
v -0.012021 -0.012021 -0.065000
v -0.009445 -0.014135 -0.065000
v -0.006506 -0.015706 -0.065000
v -0.003317 -0.016673 -0.065000
v -0.000000 -0.017000 -0.065000
v 0.003317 -0.016673 -0.065000
v 0.006506 -0.015706 -0.065000
v 0.009445 -0.014135 -0.065000
v 0.012021 -0.012021 -0.065000
v 0.014135 -0.009445 -0.065000
v 0.015706 -0.006506 -0.065000
v 0.016673 -0.003317 -0.065000
v 0.021000 0.000000 -0.062000
v 0.020596 0.004097 -0.062000
v 0.019401 0.008036 -0.062000
v 0.017461 0.011667 -0.062000
v 0.014849 0.014849 -0.062000
v 0.011667 0.017461 -0.062000
v 0.008036 0.019401 -0.062000
v 0.004097 0.020596 -0.062000
v 0.000000 0.021000 -0.062000
v -0.004097 0.020596 -0.062000
v -0.008036 0.019401 -0.062000
v -0.011667 0.017461 -0.062000
v -0.014849 0.014849 -0.062000
v -0.017461 0.011667 -0.062000
v -0.019401 0.008036 -0.062000
v -0.020596 0.004097 -0.062000
v -0.021000 0.000000 -0.062000
v -0.020596 -0.004097 -0.062000
v -0.019401 -0.008036 -0.062000
v -0.017461 -0.011667 -0.062000
v -0.014849 -0.014849 -0.062000
v -0.011667 -0.017461 -0.062000
v -0.008036 -0.019401 -0.062000
v -0.004097 -0.020596 -0.062000
v -0.000000 -0.021000 -0.062000
v 0.004097 -0.020596 -0.062000
v 0.008036 -0.019401 -0.062000
v 0.011667 -0.017461 -0.062000
v 0.014849 -0.014849 -0.062000
v 0.017461 -0.011667 -0.062000
v 0.019401 -0.008036 -0.062000
v 0.020596 -0.004097 -0.062000
v 0.022000 0.000000 -0.058000
v 0.021577 0.004292 -0.058000
v 0.020325 0.008419 -0.058000
v 0.018292 0.012223 -0.058000
v 0.015556 0.015556 -0.058000
v 0.012223 0.018292 -0.058000
v 0.008419 0.020325 -0.058000
v 0.004292 0.021577 -0.058000
v 0.000000 0.022000 -0.058000
v -0.004292 0.021577 -0.058000
v -0.008419 0.020325 -0.058000
v -0.012223 0.018292 -0.058000
v -0.015556 0.015556 -0.058000
v -0.018292 0.012223 -0.058000
v -0.020325 0.008419 -0.058000
v -0.021577 0.004292 -0.058000
v -0.022000 0.000000 -0.058000
v -0.021577 -0.004292 -0.058000
v -0.020325 -0.008419 -0.058000
v -0.018292 -0.012223 -0.058000
v -0.015556 -0.015556 -0.058000
v -0.012223 -0.018292 -0.058000
v -0.008419 -0.020325 -0.058000
v -0.004292 -0.021577 -0.058000
v -0.000000 -0.022000 -0.058000
v 0.004292 -0.021577 -0.058000
v 0.008419 -0.020325 -0.058000
v 0.012223 -0.018292 -0.058000
v 0.015556 -0.015556 -0.058000
v 0.018292 -0.012223 -0.058000
v 0.020325 -0.008419 -0.058000
v 0.021577 -0.004292 -0.058000
v 0.022000 0.000000 -0.048000
v 0.021577 0.004292 -0.048000
v 0.020325 0.008419 -0.048000
v 0.018292 0.012223 -0.048000
v 0.015556 0.015556 -0.048000
v 0.012223 0.018292 -0.048000
v 0.008419 0.020325 -0.048000
v 0.004292 0.021577 -0.048000
v 0.000000 0.022000 -0.048000
v -0.004292 0.021577 -0.048000
v -0.008419 0.020325 -0.048000
v -0.012223 0.018292 -0.048000
v -0.015556 0.015556 -0.048000
v -0.018292 0.012223 -0.048000
v -0.020325 0.008419 -0.048000
v -0.021577 0.004292 -0.048000
v -0.022000 0.000000 -0.048000
v -0.021577 -0.004292 -0.048000
v -0.020325 -0.008419 -0.048000
v -0.018292 -0.012223 -0.048000
v -0.015556 -0.015556 -0.048000
v -0.012223 -0.018292 -0.048000
v -0.008419 -0.020325 -0.048000
v -0.004292 -0.021577 -0.048000
v -0.000000 -0.022000 -0.048000
v 0.004292 -0.021577 -0.048000
v 0.008419 -0.020325 -0.048000
v 0.012223 -0.018292 -0.048000
v 0.015556 -0.015556 -0.048000
v 0.018292 -0.012223 -0.048000
v 0.020325 -0.008419 -0.048000
v 0.021577 -0.004292 -0.048000
v 0.020500 0.000000 -0.046000
v 0.020106 0.003999 -0.046000
v 0.018940 0.007845 -0.046000
v 0.017045 0.011389 -0.046000
v 0.014496 0.014496 -0.046000
v 0.011389 0.017045 -0.046000
v 0.007845 0.018940 -0.046000
v 0.003999 0.020106 -0.046000
v 0.000000 0.020500 -0.046000
v -0.003999 0.020106 -0.046000
v -0.007845 0.018940 -0.046000
v -0.011389 0.017045 -0.046000
v -0.014496 0.014496 -0.046000
v -0.017045 0.011389 -0.046000
v -0.018940 0.007845 -0.046000
v -0.020106 0.003999 -0.046000
v -0.020500 0.000000 -0.046000
v -0.020106 -0.003999 -0.046000
v -0.018940 -0.007845 -0.046000
v -0.017045 -0.011389 -0.046000
v -0.014496 -0.014496 -0.046000
v -0.011389 -0.017045 -0.046000
v -0.007845 -0.018940 -0.046000
v -0.003999 -0.020106 -0.046000
v -0.000000 -0.020500 -0.046000
v 0.003999 -0.020106 -0.046000
v 0.007845 -0.018940 -0.046000
v 0.011389 -0.017045 -0.046000
v 0.014496 -0.014496 -0.046000
v 0.017045 -0.011389 -0.046000
v 0.018940 -0.007845 -0.046000
v 0.020106 -0.003999 -0.046000
v 0.022000 0.000000 -0.044000
v 0.021577 0.004292 -0.044000
v 0.020325 0.008419 -0.044000
v 0.018292 0.012223 -0.044000
v 0.015556 0.015556 -0.044000
v 0.012223 0.018292 -0.044000
v 0.008419 0.020325 -0.044000
v 0.004292 0.021577 -0.044000
v 0.000000 0.022000 -0.044000
v -0.004292 0.021577 -0.044000
v -0.008419 0.020325 -0.044000
v -0.012223 0.018292 -0.044000
v -0.015556 0.015556 -0.044000
v -0.018292 0.012223 -0.044000
v -0.020325 0.008419 -0.044000
v -0.021577 0.004292 -0.044000
v -0.022000 0.000000 -0.044000
v -0.021577 -0.004292 -0.044000
v -0.020325 -0.008419 -0.044000
v -0.018292 -0.012223 -0.044000
v -0.015556 -0.015556 -0.044000
v -0.012223 -0.018292 -0.044000
v -0.008419 -0.020325 -0.044000
v -0.004292 -0.021577 -0.044000
v -0.000000 -0.022000 -0.044000
v 0.004292 -0.021577 -0.044000
v 0.008419 -0.020325 -0.044000
v 0.012223 -0.018292 -0.044000
v 0.015556 -0.015556 -0.044000
v 0.018292 -0.012223 -0.044000
v 0.020325 -0.008419 -0.044000
v 0.021577 -0.004292 -0.044000
v 0.022000 0.000000 -0.034000
v 0.021577 0.004292 -0.034000
v 0.020325 0.008419 -0.034000
v 0.018292 0.012223 -0.034000
v 0.015556 0.015556 -0.034000
v 0.012223 0.018292 -0.034000
v 0.008419 0.020325 -0.034000
v 0.004292 0.021577 -0.034000
v 0.000000 0.022000 -0.034000
v -0.004292 0.021577 -0.034000
v -0.008419 0.020325 -0.034000
v -0.012223 0.018292 -0.034000
v -0.015556 0.015556 -0.034000
v -0.018292 0.012223 -0.034000
v -0.020325 0.008419 -0.034000
v -0.021577 0.004292 -0.034000
v -0.022000 0.000000 -0.034000
v -0.021577 -0.004292 -0.034000
v -0.020325 -0.008419 -0.034000
v -0.018292 -0.012223 -0.034000
v -0.015556 -0.015556 -0.034000
v -0.012223 -0.018292 -0.034000
v -0.008419 -0.020325 -0.034000
v -0.004292 -0.021577 -0.034000
v -0.000000 -0.022000 -0.034000
v 0.004292 -0.021577 -0.034000
v 0.008419 -0.020325 -0.034000
v 0.012223 -0.018292 -0.034000
v 0.015556 -0.015556 -0.034000
v 0.018292 -0.012223 -0.034000
v 0.020325 -0.008419 -0.034000
v 0.021577 -0.004292 -0.034000
v 0.020500 0.000000 -0.032000
v 0.020106 0.003999 -0.032000
v 0.018940 0.007845 -0.032000
v 0.017045 0.011389 -0.032000
v 0.014496 0.014496 -0.032000
v 0.011389 0.017045 -0.032000
v 0.007845 0.018940 -0.032000
v 0.003999 0.020106 -0.032000
v 0.000000 0.020500 -0.032000
v -0.003999 0.020106 -0.032000
v -0.007845 0.018940 -0.032000
v -0.011389 0.017045 -0.032000
v -0.014496 0.014496 -0.032000
v -0.017045 0.011389 -0.032000
v -0.018940 0.007845 -0.032000
v -0.020106 0.003999 -0.032000
v -0.020500 0.000000 -0.032000
v -0.020106 -0.003999 -0.032000
v -0.018940 -0.007845 -0.032000
v -0.017045 -0.011389 -0.032000
v -0.014496 -0.014496 -0.032000
v -0.011389 -0.017045 -0.032000
v -0.007845 -0.018940 -0.032000
v -0.003999 -0.020106 -0.032000
v -0.000000 -0.020500 -0.032000
v 0.003999 -0.020106 -0.032000
v 0.007845 -0.018940 -0.032000
v 0.011389 -0.017045 -0.032000
v 0.014496 -0.014496 -0.032000
v 0.017045 -0.011389 -0.032000
v 0.018940 -0.007845 -0.032000
v 0.020106 -0.003999 -0.032000
v 0.022000 0.000000 -0.030000
v 0.021577 0.004292 -0.030000
v 0.020325 0.008419 -0.030000
v 0.018292 0.012223 -0.030000
v 0.015556 0.015556 -0.030000
v 0.012223 0.018292 -0.030000
v 0.008419 0.020325 -0.030000
v 0.004292 0.021577 -0.030000
v 0.000000 0.022000 -0.030000
v -0.004292 0.021577 -0.030000
v -0.008419 0.020325 -0.030000
v -0.012223 0.018292 -0.030000
v -0.015556 0.015556 -0.030000
v -0.018292 0.012223 -0.030000
v -0.020325 0.008419 -0.030000
v -0.021577 0.004292 -0.030000
v -0.022000 0.000000 -0.030000
v -0.021577 -0.004292 -0.030000
v -0.020325 -0.008419 -0.030000
v -0.018292 -0.012223 -0.030000
v -0.015556 -0.015556 -0.030000
v -0.012223 -0.018292 -0.030000
v -0.008419 -0.020325 -0.030000
v -0.004292 -0.021577 -0.030000
v -0.000000 -0.022000 -0.030000
v 0.004292 -0.021577 -0.030000
v 0.008419 -0.020325 -0.030000
v 0.012223 -0.018292 -0.030000
v 0.015556 -0.015556 -0.030000
v 0.018292 -0.012223 -0.030000
v 0.020325 -0.008419 -0.030000
v 0.021577 -0.004292 -0.030000
v 0.022000 0.000000 -0.022000
v 0.021577 0.004292 -0.022000
v 0.020325 0.008419 -0.022000
v 0.018292 0.012223 -0.022000
v 0.015556 0.015556 -0.022000
v 0.012223 0.018292 -0.022000
v 0.008419 0.020325 -0.022000
v 0.004292 0.021577 -0.022000
v 0.000000 0.022000 -0.022000
v -0.004292 0.021577 -0.022000
v -0.008419 0.020325 -0.022000
v -0.012223 0.018292 -0.022000
v -0.015556 0.015556 -0.022000
v -0.018292 0.012223 -0.022000
v -0.020325 0.008419 -0.022000
v -0.021577 0.004292 -0.022000
v -0.022000 0.000000 -0.022000
v -0.021577 -0.004292 -0.022000
v -0.020325 -0.008419 -0.022000
v -0.018292 -0.012223 -0.022000
v -0.015556 -0.015556 -0.022000
v -0.012223 -0.018292 -0.022000
v -0.008419 -0.020325 -0.022000
v -0.004292 -0.021577 -0.022000
v -0.000000 -0.022000 -0.022000
v 0.004292 -0.021577 -0.022000
v 0.008419 -0.020325 -0.022000
v 0.012223 -0.018292 -0.022000
v 0.015556 -0.015556 -0.022000
v 0.018292 -0.012223 -0.022000
v 0.020325 -0.008419 -0.022000
v 0.021577 -0.004292 -0.022000
v 0.019000 0.000000 -0.017000
v 0.018635 0.003707 -0.017000
v 0.017554 0.007271 -0.017000
v 0.015798 0.010556 -0.017000
v 0.013435 0.013435 -0.017000
v 0.010556 0.015798 -0.017000
v 0.007271 0.017554 -0.017000
v 0.003707 0.018635 -0.017000
v 0.000000 0.019000 -0.017000
v -0.003707 0.018635 -0.017000
v -0.007271 0.017554 -0.017000
v -0.010556 0.015798 -0.017000
v -0.013435 0.013435 -0.017000
v -0.015798 0.010556 -0.017000
v -0.017554 0.007271 -0.017000
v -0.018635 0.003707 -0.017000
v -0.019000 0.000000 -0.017000
v -0.018635 -0.003707 -0.017000
v -0.017554 -0.007271 -0.017000
v -0.015798 -0.010556 -0.017000
v -0.013435 -0.013435 -0.017000
v -0.010556 -0.015798 -0.017000
v -0.007271 -0.017554 -0.017000
v -0.003707 -0.018635 -0.017000
v -0.000000 -0.019000 -0.017000
v 0.003707 -0.018635 -0.017000
v 0.007271 -0.017554 -0.017000
v 0.010556 -0.015798 -0.017000
v 0.013435 -0.013435 -0.017000
v 0.015798 -0.010556 -0.017000
v 0.017554 -0.007271 -0.017000
v 0.018635 -0.003707 -0.017000
v 0.022000 0.000000 -0.012000
v 0.021577 0.004292 -0.012000
v 0.020325 0.008419 -0.012000
v 0.018292 0.012223 -0.012000
v 0.015556 0.015556 -0.012000
v 0.012223 0.018292 -0.012000
v 0.008419 0.020325 -0.012000
v 0.004292 0.021577 -0.012000
v 0.000000 0.022000 -0.012000
v -0.004292 0.021577 -0.012000
v -0.008419 0.020325 -0.012000
v -0.012223 0.018292 -0.012000
v -0.015556 0.015556 -0.012000
v -0.018292 0.012223 -0.012000
v -0.020325 0.008419 -0.012000
v -0.021577 0.004292 -0.012000
v -0.022000 0.000000 -0.012000
v -0.021577 -0.004292 -0.012000
v -0.020325 -0.008419 -0.012000
v -0.018292 -0.012223 -0.012000
v -0.015556 -0.015556 -0.012000
v -0.012223 -0.018292 -0.012000
v -0.008419 -0.020325 -0.012000
v -0.004292 -0.021577 -0.012000
v -0.000000 -0.022000 -0.012000
v 0.004292 -0.021577 -0.012000
v 0.008419 -0.020325 -0.012000
v 0.012223 -0.018292 -0.012000
v 0.015556 -0.015556 -0.012000
v 0.018292 -0.012223 -0.012000
v 0.020325 -0.008419 -0.012000
v 0.021577 -0.004292 -0.012000
v 0.022000 0.000000 -0.004000
v 0.021577 0.004292 -0.004000
v 0.020325 0.008419 -0.004000
v 0.018292 0.012223 -0.004000
v 0.015556 0.015556 -0.004000
v 0.012223 0.018292 -0.004000
v 0.008419 0.020325 -0.004000
v 0.004292 0.021577 -0.004000
v 0.000000 0.022000 -0.004000
v -0.004292 0.021577 -0.004000
v -0.008419 0.020325 -0.004000
v -0.012223 0.018292 -0.004000
v -0.015556 0.015556 -0.004000
v -0.018292 0.012223 -0.004000
v -0.020325 0.008419 -0.004000
v -0.021577 0.004292 -0.004000
v -0.022000 0.000000 -0.004000
v -0.021577 -0.004292 -0.004000
v -0.020325 -0.008419 -0.004000
v -0.018292 -0.012223 -0.004000
v -0.015556 -0.015556 -0.004000
v -0.012223 -0.018292 -0.004000
v -0.008419 -0.020325 -0.004000
v -0.004292 -0.021577 -0.004000
v -0.000000 -0.022000 -0.004000
v 0.004292 -0.021577 -0.004000
v 0.008419 -0.020325 -0.004000
v 0.012223 -0.018292 -0.004000
v 0.015556 -0.015556 -0.004000
v 0.018292 -0.012223 -0.004000
v 0.020325 -0.008419 -0.004000
v 0.021577 -0.004292 -0.004000
v 0.020500 0.000000 0.002000
v 0.020106 0.003999 0.002000
v 0.018940 0.007845 0.002000
v 0.017045 0.011389 0.002000
v 0.014496 0.014496 0.002000
v 0.011389 0.017045 0.002000
v 0.007845 0.018940 0.002000
v 0.003999 0.020106 0.002000
v 0.000000 0.020500 0.002000
v -0.003999 0.020106 0.002000
v -0.007845 0.018940 0.002000
v -0.011389 0.017045 0.002000
v -0.014496 0.014496 0.002000
v -0.017045 0.011389 0.002000
v -0.018940 0.007845 0.002000
v -0.020106 0.003999 0.002000
v -0.020500 0.000000 0.002000
v -0.020106 -0.003999 0.002000
v -0.018940 -0.007845 0.002000
v -0.017045 -0.011389 0.002000
v -0.014496 -0.014496 0.002000
v -0.011389 -0.017045 0.002000
v -0.007845 -0.018940 0.002000
v -0.003999 -0.020106 0.002000
v -0.000000 -0.020500 0.002000
v 0.003999 -0.020106 0.002000
v 0.007845 -0.018940 0.002000
v 0.011389 -0.017045 0.002000
v 0.014496 -0.014496 0.002000
v 0.017045 -0.011389 0.002000
v 0.018940 -0.007845 0.002000
v 0.020106 -0.003999 0.002000
v 0.022000 0.000000 0.004000
v 0.021577 0.004292 0.004000
v 0.020325 0.008419 0.004000
v 0.018292 0.012223 0.004000
v 0.015556 0.015556 0.004000
v 0.012223 0.018292 0.004000
v 0.008419 0.020325 0.004000
v 0.004292 0.021577 0.004000
v 0.000000 0.022000 0.004000
v -0.004292 0.021577 0.004000
v -0.008419 0.020325 0.004000
v -0.012223 0.018292 0.004000
v -0.015556 0.015556 0.004000
v -0.018292 0.012223 0.004000
v -0.020325 0.008419 0.004000
v -0.021577 0.004292 0.004000
v -0.022000 0.000000 0.004000
v -0.021577 -0.004292 0.004000
v -0.020325 -0.008419 0.004000
v -0.018292 -0.012223 0.004000
v -0.015556 -0.015556 0.004000
v -0.012223 -0.018292 0.004000
v -0.008419 -0.020325 0.004000
v -0.004292 -0.021577 0.004000
v -0.000000 -0.022000 0.004000
v 0.004292 -0.021577 0.004000
v 0.008419 -0.020325 0.004000
v 0.012223 -0.018292 0.004000
v 0.015556 -0.015556 0.004000
v 0.018292 -0.012223 0.004000
v 0.020325 -0.008419 0.004000
v 0.021577 -0.004292 0.004000
v 0.022000 0.000000 0.012000
v 0.021577 0.004292 0.012000
v 0.020325 0.008419 0.012000
v 0.018292 0.012223 0.012000
v 0.015556 0.015556 0.012000
v 0.012223 0.018292 0.012000
v 0.008419 0.020325 0.012000
v 0.004292 0.021577 0.012000
v 0.000000 0.022000 0.012000
v -0.004292 0.021577 0.012000
v -0.008419 0.020325 0.012000
v -0.012223 0.018292 0.012000
v -0.015556 0.015556 0.012000
v -0.018292 0.012223 0.012000
v -0.020325 0.008419 0.012000
v -0.021577 0.004292 0.012000
v -0.022000 0.000000 0.012000
v -0.021577 -0.004292 0.012000
v -0.020325 -0.008419 0.012000
v -0.018292 -0.012223 0.012000
v -0.015556 -0.015556 0.012000
v -0.012223 -0.018292 0.012000
v -0.008419 -0.020325 0.012000
v -0.004292 -0.021577 0.012000
v -0.000000 -0.022000 0.012000
v 0.004292 -0.021577 0.012000
v 0.008419 -0.020325 0.012000
v 0.012223 -0.018292 0.012000
v 0.015556 -0.015556 0.012000
v 0.018292 -0.012223 0.012000
v 0.020325 -0.008419 0.012000
v 0.021577 -0.004292 0.012000
v 0.021000 0.000000 0.018000
v 0.020596 0.004097 0.018000
v 0.019401 0.008036 0.018000
v 0.017461 0.011667 0.018000
v 0.014849 0.014849 0.018000
v 0.011667 0.017461 0.018000
v 0.008036 0.019401 0.018000
v 0.004097 0.020596 0.018000
v 0.000000 0.021000 0.018000
v -0.004097 0.020596 0.018000
v -0.008036 0.019401 0.018000
v -0.011667 0.017461 0.018000
v -0.014849 0.014849 0.018000
v -0.017461 0.011667 0.018000
v -0.019401 0.008036 0.018000
v -0.020596 0.004097 0.018000
v -0.021000 0.000000 0.018000
v -0.020596 -0.004097 0.018000
v -0.019401 -0.008036 0.018000
v -0.017461 -0.011667 0.018000
v -0.014849 -0.014849 0.018000
v -0.011667 -0.017461 0.018000
v -0.008036 -0.019401 0.018000
v -0.004097 -0.020596 0.018000
v -0.000000 -0.021000 0.018000
v 0.004097 -0.020596 0.018000
v 0.008036 -0.019401 0.018000
v 0.011667 -0.017461 0.018000
v 0.014849 -0.014849 0.018000
v 0.017461 -0.011667 0.018000
v 0.019401 -0.008036 0.018000
v 0.020596 -0.004097 0.018000
v 0.018000 0.000000 0.024000
v 0.017654 0.003512 0.024000
v 0.016630 0.006888 0.024000
v 0.014966 0.010000 0.024000
v 0.012728 0.012728 0.024000
v 0.010000 0.014966 0.024000
v 0.006888 0.016630 0.024000
v 0.003512 0.017654 0.024000
v 0.000000 0.018000 0.024000
v -0.003512 0.017654 0.024000
v -0.006888 0.016630 0.024000
v -0.010000 0.014966 0.024000
v -0.012728 0.012728 0.024000
v -0.014966 0.010000 0.024000
v -0.016630 0.006888 0.024000
v -0.017654 0.003512 0.024000
v -0.018000 0.000000 0.024000
v -0.017654 -0.003512 0.024000
v -0.016630 -0.006888 0.024000
v -0.014966 -0.010000 0.024000
v -0.012728 -0.012728 0.024000
v -0.010000 -0.014966 0.024000
v -0.006888 -0.016630 0.024000
v -0.003512 -0.017654 0.024000
v -0.000000 -0.018000 0.024000
v 0.003512 -0.017654 0.024000
v 0.006888 -0.016630 0.024000
v 0.010000 -0.014966 0.024000
v 0.012728 -0.012728 0.024000
v 0.014966 -0.010000 0.024000
v 0.016630 -0.006888 0.024000
v 0.017654 -0.003512 0.024000
v 0.014000 0.000000 0.030000
v 0.013731 0.002731 0.030000
v 0.012934 0.005358 0.030000
v 0.011641 0.007778 0.030000
v 0.009899 0.009899 0.030000
v 0.007778 0.011641 0.030000
v 0.005358 0.012934 0.030000
v 0.002731 0.013731 0.030000
v 0.000000 0.014000 0.030000
v -0.002731 0.013731 0.030000
v -0.005358 0.012934 0.030000
v -0.007778 0.011641 0.030000
v -0.009899 0.009899 0.030000
v -0.011641 0.007778 0.030000
v -0.012934 0.005358 0.030000
v -0.013731 0.002731 0.030000
v -0.014000 0.000000 0.030000
v -0.013731 -0.002731 0.030000
v -0.012934 -0.005358 0.030000
v -0.011641 -0.007778 0.030000
v -0.009899 -0.009899 0.030000
v -0.007778 -0.011641 0.030000
v -0.005358 -0.012934 0.030000
v -0.002731 -0.013731 0.030000
v -0.000000 -0.014000 0.030000
v 0.002731 -0.013731 0.030000
v 0.005358 -0.012934 0.030000
v 0.007778 -0.011641 0.030000
v 0.009899 -0.009899 0.030000
v 0.011641 -0.007778 0.030000
v 0.012934 -0.005358 0.030000
v 0.013731 -0.002731 0.030000
v 0.012000 0.000000 0.035000
v 0.011769 0.002341 0.035000
v 0.011087 0.004592 0.035000
v 0.009978 0.006667 0.035000
v 0.008485 0.008485 0.035000
v 0.006667 0.009978 0.035000
v 0.004592 0.011087 0.035000
v 0.002341 0.011769 0.035000
v 0.000000 0.012000 0.035000
v -0.002341 0.011769 0.035000
v -0.004592 0.011087 0.035000
v -0.006667 0.009978 0.035000
v -0.008485 0.008485 0.035000
v -0.009978 0.006667 0.035000
v -0.011087 0.004592 0.035000
v -0.011769 0.002341 0.035000
v -0.012000 0.000000 0.035000
v -0.011769 -0.002341 0.035000
v -0.011087 -0.004592 0.035000
v -0.009978 -0.006667 0.035000
v -0.008485 -0.008485 0.035000
v -0.006667 -0.009978 0.035000
v -0.004592 -0.011087 0.035000
v -0.002341 -0.011769 0.035000
v -0.000000 -0.012000 0.035000
v 0.002341 -0.011769 0.035000
v 0.004592 -0.011087 0.035000
v 0.006667 -0.009978 0.035000
v 0.008485 -0.008485 0.035000
v 0.009978 -0.006667 0.035000
v 0.011087 -0.004592 0.035000
v 0.011769 -0.002341 0.035000
v 0.013000 0.000000 0.038000
v 0.012750 0.002536 0.038000
v 0.012010 0.004975 0.038000
v 0.010809 0.007222 0.038000
v 0.009192 0.009192 0.038000
v 0.007222 0.010809 0.038000
v 0.004975 0.012010 0.038000
v 0.002536 0.012750 0.038000
v 0.000000 0.013000 0.038000
v -0.002536 0.012750 0.038000
v -0.004975 0.012010 0.038000
v -0.007222 0.010809 0.038000
v -0.009192 0.009192 0.038000
v -0.010809 0.007222 0.038000
v -0.012010 0.004975 0.038000
v -0.012750 0.002536 0.038000
v -0.013000 0.000000 0.038000
v -0.012750 -0.002536 0.038000
v -0.012010 -0.004975 0.038000
v -0.010809 -0.007222 0.038000
v -0.009192 -0.009192 0.038000
v -0.007222 -0.010809 0.038000
v -0.004975 -0.012010 0.038000
v -0.002536 -0.012750 0.038000
v -0.000000 -0.013000 0.038000
v 0.002536 -0.012750 0.038000
v 0.004975 -0.012010 0.038000
v 0.007222 -0.010809 0.038000
v 0.009192 -0.009192 0.038000
v 0.010809 -0.007222 0.038000
v 0.012010 -0.004975 0.038000
v 0.012750 -0.002536 0.038000
v 0.012000 0.000000 0.041000
v 0.011769 0.002341 0.041000
v 0.011087 0.004592 0.041000
v 0.009978 0.006667 0.041000
v 0.008485 0.008485 0.041000
v 0.006667 0.009978 0.041000
v 0.004592 0.011087 0.041000
v 0.002341 0.011769 0.041000
v 0.000000 0.012000 0.041000
v -0.002341 0.011769 0.041000
v -0.004592 0.011087 0.041000
v -0.006667 0.009978 0.041000
v -0.008485 0.008485 0.041000
v -0.009978 0.006667 0.041000
v -0.011087 0.004592 0.041000
v -0.011769 0.002341 0.041000
v -0.012000 0.000000 0.041000
v -0.011769 -0.002341 0.041000
v -0.011087 -0.004592 0.041000
v -0.009978 -0.006667 0.041000
v -0.008485 -0.008485 0.041000
v -0.006667 -0.009978 0.041000
v -0.004592 -0.011087 0.041000
v -0.002341 -0.011769 0.041000
v -0.000000 -0.012000 0.041000
v 0.002341 -0.011769 0.041000
v 0.004592 -0.011087 0.041000
v 0.006667 -0.009978 0.041000
v 0.008485 -0.008485 0.041000
v 0.009978 -0.006667 0.041000
v 0.011087 -0.004592 0.041000
v 0.011769 -0.002341 0.041000
v 0.011000 0.000000 0.055000
v 0.010789 0.002146 0.055000
v 0.010163 0.004210 0.055000
v 0.009146 0.006111 0.055000
v 0.007778 0.007778 0.055000
v 0.006111 0.009146 0.055000
v 0.004210 0.010163 0.055000
v 0.002146 0.010789 0.055000
v 0.000000 0.011000 0.055000
v -0.002146 0.010789 0.055000
v -0.004210 0.010163 0.055000
v -0.006111 0.009146 0.055000
v -0.007778 0.007778 0.055000
v -0.009146 0.006111 0.055000
v -0.010163 0.004210 0.055000
v -0.010789 0.002146 0.055000
v -0.011000 0.000000 0.055000
v -0.010789 -0.002146 0.055000
v -0.010163 -0.004210 0.055000
v -0.009146 -0.006111 0.055000
v -0.007778 -0.007778 0.055000
v -0.006111 -0.009146 0.055000
v -0.004210 -0.010163 0.055000
v -0.002146 -0.010789 0.055000
v -0.000000 -0.011000 0.055000
v 0.002146 -0.010789 0.055000
v 0.004210 -0.010163 0.055000
v 0.006111 -0.009146 0.055000
v 0.007778 -0.007778 0.055000
v 0.009146 -0.006111 0.055000
v 0.010163 -0.004210 0.055000
v 0.010789 -0.002146 0.055000
v 0.013500 0.000000 0.057000
v 0.013241 0.002634 0.057000
v 0.012472 0.005166 0.057000
v 0.011225 0.007500 0.057000
v 0.009546 0.009546 0.057000
v 0.007500 0.011225 0.057000
v 0.005166 0.012472 0.057000
v 0.002634 0.013241 0.057000
v 0.000000 0.013500 0.057000
v -0.002634 0.013241 0.057000
v -0.005166 0.012472 0.057000
v -0.007500 0.011225 0.057000
v -0.009546 0.009546 0.057000
v -0.011225 0.007500 0.057000
v -0.012472 0.005166 0.057000
v -0.013241 0.002634 0.057000
v -0.013500 0.000000 0.057000
v -0.013241 -0.002634 0.057000
v -0.012472 -0.005166 0.057000
v -0.011225 -0.007500 0.057000
v -0.009546 -0.009546 0.057000
v -0.007500 -0.011225 0.057000
v -0.005166 -0.012472 0.057000
v -0.002634 -0.013241 0.057000
v -0.000000 -0.013500 0.057000
v 0.002634 -0.013241 0.057000
v 0.005166 -0.012472 0.057000
v 0.007500 -0.011225 0.057000
v 0.009546 -0.009546 0.057000
v 0.011225 -0.007500 0.057000
v 0.012472 -0.005166 0.057000
v 0.013241 -0.002634 0.057000
v 0.013500 0.000000 0.070000
v 0.013241 0.002634 0.070000
v 0.012472 0.005166 0.070000
v 0.011225 0.007500 0.070000
v 0.009546 0.009546 0.070000
v 0.007500 0.011225 0.070000
v 0.005166 0.012472 0.070000
v 0.002634 0.013241 0.070000
v 0.000000 0.013500 0.070000
v -0.002634 0.013241 0.070000
v -0.005166 0.012472 0.070000
v -0.007500 0.011225 0.070000
v -0.009546 0.009546 0.070000
v -0.011225 0.007500 0.070000
v -0.012472 0.005166 0.070000
v -0.013241 0.002634 0.070000
v -0.013500 0.000000 0.070000
v -0.013241 -0.002634 0.070000
v -0.012472 -0.005166 0.070000
v -0.011225 -0.007500 0.070000
v -0.009546 -0.009546 0.070000
v -0.007500 -0.011225 0.070000
v -0.005166 -0.012472 0.070000
v -0.002634 -0.013241 0.070000
v -0.000000 -0.013500 0.070000
v 0.002634 -0.013241 0.070000
v 0.005166 -0.012472 0.070000
v 0.007500 -0.011225 0.070000
v 0.009546 -0.009546 0.070000
v 0.011225 -0.007500 0.070000
v 0.012472 -0.005166 0.070000
v 0.013241 -0.002634 0.070000
v 0.000000 0.000000 0.070000

f 1 3 2
f 1 4 3
f 1 5 4
f 1 6 5
f 1 7 6
f 1 8 7
f 1 9 8
f 1 10 9
f 1 11 10
f 1 12 11
f 1 13 12
f 1 14 13
f 1 15 14
f 1 16 15
f 1 17 16
f 1 18 17
f 1 19 18
f 1 20 19
f 1 21 20
f 1 22 21
f 1 23 22
f 1 24 23
f 1 25 24
f 1 26 25
f 1 27 26
f 1 28 27
f 1 29 28
f 1 30 29
f 1 31 30
f 1 32 31
f 1 33 32
f 1 2 33
f 2 3 35
f 2 35 34
f 3 4 36
f 3 36 35
f 4 5 37
f 4 37 36
f 5 6 38
f 5 38 37
f 6 7 39
f 6 39 38
f 7 8 40
f 7 40 39
f 8 9 41
f 8 41 40
f 9 10 42
f 9 42 41
f 10 11 43
f 10 43 42
f 11 12 44
f 11 44 43
f 12 13 45
f 12 45 44
f 13 14 46
f 13 46 45
f 14 15 47
f 14 47 46
f 15 16 48
f 15 48 47
f 16 17 49
f 16 49 48
f 17 18 50
f 17 50 49
f 18 19 51
f 18 51 50
f 19 20 52
f 19 52 51
f 20 21 53
f 20 53 52
f 21 22 54
f 21 54 53
f 22 23 55
f 22 55 54
f 23 24 56
f 23 56 55
f 24 25 57
f 24 57 56
f 25 26 58
f 25 58 57
f 26 27 59
f 26 59 58
f 27 28 60
f 27 60 59
f 28 29 61
f 28 61 60
f 29 30 62
f 29 62 61
f 30 31 63
f 30 63 62
f 31 32 64
f 31 64 63
f 32 33 65
f 32 65 64
f 33 2 34
f 33 34 65
f 34 35 67
f 34 67 66
f 35 36 68
f 35 68 67
f 36 37 69
f 36 69 68
f 37 38 70
f 37 70 69
f 38 39 71
f 38 71 70
f 39 40 72
f 39 72 71
f 40 41 73
f 40 73 72
f 41 42 74
f 41 74 73
f 42 43 75
f 42 75 74
f 43 44 76
f 43 76 75
f 44 45 77
f 44 77 76
f 45 46 78
f 45 78 77
f 46 47 79
f 46 79 78
f 47 48 80
f 47 80 79
f 48 49 81
f 48 81 80
f 49 50 82
f 49 82 81
f 50 51 83
f 50 83 82
f 51 52 84
f 51 84 83
f 52 53 85
f 52 85 84
f 53 54 86
f 53 86 85
f 54 55 87
f 54 87 86
f 55 56 88
f 55 88 87
f 56 57 89
f 56 89 88
f 57 58 90
f 57 90 89
f 58 59 91
f 58 91 90
f 59 60 92
f 59 92 91
f 60 61 93
f 60 93 92
f 61 62 94
f 61 94 93
f 62 63 95
f 62 95 94
f 63 64 96
f 63 96 95
f 64 65 97
f 64 97 96
f 65 34 66
f 65 66 97
f 66 67 99
f 66 99 98
f 67 68 100
f 67 100 99
f 68 69 101
f 68 101 100
f 69 70 102
f 69 102 101
f 70 71 103
f 70 103 102
f 71 72 104
f 71 104 103
f 72 73 105
f 72 105 104
f 73 74 106
f 73 106 105
f 74 75 107
f 74 107 106
f 75 76 108
f 75 108 107
f 76 77 109
f 76 109 108
f 77 78 110
f 77 110 109
f 78 79 111
f 78 111 110
f 79 80 112
f 79 112 111
f 80 81 113
f 80 113 112
f 81 82 114
f 81 114 113
f 82 83 115
f 82 115 114
f 83 84 116
f 83 116 115
f 84 85 117
f 84 117 116
f 85 86 118
f 85 118 117
f 86 87 119
f 86 119 118
f 87 88 120
f 87 120 119
f 88 89 121
f 88 121 120
f 89 90 122
f 89 122 121
f 90 91 123
f 90 123 122
f 91 92 124
f 91 124 123
f 92 93 125
f 92 125 124
f 93 94 126
f 93 126 125
f 94 95 127
f 94 127 126
f 95 96 128
f 95 128 127
f 96 97 129
f 96 129 128
f 97 66 98
f 97 98 129
f 98 99 131
f 98 131 130
f 99 100 132
f 99 132 131
f 100 101 133
f 100 133 132
f 101 102 134
f 101 134 133
f 102 103 135
f 102 135 134
f 103 104 136
f 103 136 135
f 104 105 137
f 104 137 136
f 105 106 138
f 105 138 137
f 106 107 139
f 106 139 138
f 107 108 140
f 107 140 139
f 108 109 141
f 108 141 140
f 109 110 142
f 109 142 141
f 110 111 143
f 110 143 142
f 111 112 144
f 111 144 143
f 112 113 145
f 112 145 144
f 113 114 146
f 113 146 145
f 114 115 147
f 114 147 146
f 115 116 148
f 115 148 147
f 116 117 149
f 116 149 148
f 117 118 150
f 117 150 149
f 118 119 151
f 118 151 150
f 119 120 152
f 119 152 151
f 120 121 153
f 120 153 152
f 121 122 154
f 121 154 153
f 122 123 155
f 122 155 154
f 123 124 156
f 123 156 155
f 124 125 157
f 124 157 156
f 125 126 158
f 125 158 157
f 126 127 159
f 126 159 158
f 127 128 160
f 127 160 159
f 128 129 161
f 128 161 160
f 129 98 130
f 129 130 161
f 130 131 163
f 130 163 162
f 131 132 164
f 131 164 163
f 132 133 165
f 132 165 164
f 133 134 166
f 133 166 165
f 134 135 167
f 134 167 166
f 135 136 168
f 135 168 167
f 136 137 169
f 136 169 168
f 137 138 170
f 137 170 169
f 138 139 171
f 138 171 170
f 139 140 172
f 139 172 171
f 140 141 173
f 140 173 172
f 141 142 174
f 141 174 173
f 142 143 175
f 142 175 174
f 143 144 176
f 143 176 175
f 144 145 177
f 144 177 176
f 145 146 178
f 145 178 177
f 146 147 179
f 146 179 178
f 147 148 180
f 147 180 179
f 148 149 181
f 148 181 180
f 149 150 182
f 149 182 181
f 150 151 183
f 150 183 182
f 151 152 184
f 151 184 183
f 152 153 185
f 152 185 184
f 153 154 186
f 153 186 185
f 154 155 187
f 154 187 186
f 155 156 188
f 155 188 187
f 156 157 189
f 156 189 188
f 157 158 190
f 157 190 189
f 158 159 191
f 158 191 190
f 159 160 192
f 159 192 191
f 160 161 193
f 160 193 192
f 161 130 162
f 161 162 193
f 162 163 195
f 162 195 194
f 163 164 196
f 163 196 195
f 164 165 197
f 164 197 196
f 165 166 198
f 165 198 197
f 166 167 199
f 166 199 198
f 167 168 200
f 167 200 199
f 168 169 201
f 168 201 200
f 169 170 202
f 169 202 201
f 170 171 203
f 170 203 202
f 171 172 204
f 171 204 203
f 172 173 205
f 172 205 204
f 173 174 206
f 173 206 205
f 174 175 207
f 174 207 206
f 175 176 208
f 175 208 207
f 176 177 209
f 176 209 208
f 177 178 210
f 177 210 209
f 178 179 211
f 178 211 210
f 179 180 212
f 179 212 211
f 180 181 213
f 180 213 212
f 181 182 214
f 181 214 213
f 182 183 215
f 182 215 214
f 183 184 216
f 183 216 215
f 184 185 217
f 184 217 216
f 185 186 218
f 185 218 217
f 186 187 219
f 186 219 218
f 187 188 220
f 187 220 219
f 188 189 221
f 188 221 220
f 189 190 222
f 189 222 221
f 190 191 223
f 190 223 222
f 191 192 224
f 191 224 223
f 192 193 225
f 192 225 224
f 193 162 194
f 193 194 225
f 194 195 227
f 194 227 226
f 195 196 228
f 195 228 227
f 196 197 229
f 196 229 228
f 197 198 230
f 197 230 229
f 198 199 231
f 198 231 230
f 199 200 232
f 199 232 231
f 200 201 233
f 200 233 232
f 201 202 234
f 201 234 233
f 202 203 235
f 202 235 234
f 203 204 236
f 203 236 235
f 204 205 237
f 204 237 236
f 205 206 238
f 205 238 237
f 206 207 239
f 206 239 238
f 207 208 240
f 207 240 239
f 208 209 241
f 208 241 240
f 209 210 242
f 209 242 241
f 210 211 243
f 210 243 242
f 211 212 244
f 211 244 243
f 212 213 245
f 212 245 244
f 213 214 246
f 213 246 245
f 214 215 247
f 214 247 246
f 215 216 248
f 215 248 247
f 216 217 249
f 216 249 248
f 217 218 250
f 217 250 249
f 218 219 251
f 218 251 250
f 219 220 252
f 219 252 251
f 220 221 253
f 220 253 252
f 221 222 254
f 221 254 253
f 222 223 255
f 222 255 254
f 223 224 256
f 223 256 255
f 224 225 257
f 224 257 256
f 225 194 226
f 225 226 257
f 226 227 259
f 226 259 258
f 227 228 260
f 227 260 259
f 228 229 261
f 228 261 260
f 229 230 262
f 229 262 261
f 230 231 263
f 230 263 262
f 231 232 264
f 231 264 263
f 232 233 265
f 232 265 264
f 233 234 266
f 233 266 265
f 234 235 267
f 234 267 266
f 235 236 268
f 235 268 267
f 236 237 269
f 236 269 268
f 237 238 270
f 237 270 269
f 238 239 271
f 238 271 270
f 239 240 272
f 239 272 271
f 240 241 273
f 240 273 272
f 241 242 274
f 241 274 273
f 242 243 275
f 242 275 274
f 243 244 276
f 243 276 275
f 244 245 277
f 244 277 276
f 245 246 278
f 245 278 277
f 246 247 279
f 246 279 278
f 247 248 280
f 247 280 279
f 248 249 281
f 248 281 280
f 249 250 282
f 249 282 281
f 250 251 283
f 250 283 282
f 251 252 284
f 251 284 283
f 252 253 285
f 252 285 284
f 253 254 286
f 253 286 285
f 254 255 287
f 254 287 286
f 255 256 288
f 255 288 287
f 256 257 289
f 256 289 288
f 257 226 258
f 257 258 289
f 258 259 291
f 258 291 290
f 259 260 292
f 259 292 291
f 260 261 293
f 260 293 292
f 261 262 294
f 261 294 293
f 262 263 295
f 262 295 294
f 263 264 296
f 263 296 295
f 264 265 297
f 264 297 296
f 265 266 298
f 265 298 297
f 266 267 299
f 266 299 298
f 267 268 300
f 267 300 299
f 268 269 301
f 268 301 300
f 269 270 302
f 269 302 301
f 270 271 303
f 270 303 302
f 271 272 304
f 271 304 303
f 272 273 305
f 272 305 304
f 273 274 306
f 273 306 305
f 274 275 307
f 274 307 306
f 275 276 308
f 275 308 307
f 276 277 309
f 276 309 308
f 277 278 310
f 277 310 309
f 278 279 311
f 278 311 310
f 279 280 312
f 279 312 311
f 280 281 313
f 280 313 312
f 281 282 314
f 281 314 313
f 282 283 315
f 282 315 314
f 283 284 316
f 283 316 315
f 284 285 317
f 284 317 316
f 285 286 318
f 285 318 317
f 286 287 319
f 286 319 318
f 287 288 320
f 287 320 319
f 288 289 321
f 288 321 320
f 289 258 290
f 289 290 321
f 290 291 323
f 290 323 322
f 291 292 324
f 291 324 323
f 292 293 325
f 292 325 324
f 293 294 326
f 293 326 325
f 294 295 327
f 294 327 326
f 295 296 328
f 295 328 327
f 296 297 329
f 296 329 328
f 297 298 330
f 297 330 329
f 298 299 331
f 298 331 330
f 299 300 332
f 299 332 331
f 300 301 333
f 300 333 332
f 301 302 334
f 301 334 333
f 302 303 335
f 302 335 334
f 303 304 336
f 303 336 335
f 304 305 337
f 304 337 336
f 305 306 338
f 305 338 337
f 306 307 339
f 306 339 338
f 307 308 340
f 307 340 339
f 308 309 341
f 308 341 340
f 309 310 342
f 309 342 341
f 310 311 343
f 310 343 342
f 311 312 344
f 311 344 343
f 312 313 345
f 312 345 344
f 313 314 346
f 313 346 345
f 314 315 347
f 314 347 346
f 315 316 348
f 315 348 347
f 316 317 349
f 316 349 348
f 317 318 350
f 317 350 349
f 318 319 351
f 318 351 350
f 319 320 352
f 319 352 351
f 320 321 353
f 320 353 352
f 321 290 322
f 321 322 353
f 322 323 355
f 322 355 354
f 323 324 356
f 323 356 355
f 324 325 357
f 324 357 356
f 325 326 358
f 325 358 357
f 326 327 359
f 326 359 358
f 327 328 360
f 327 360 359
f 328 329 361
f 328 361 360
f 329 330 362
f 329 362 361
f 330 331 363
f 330 363 362
f 331 332 364
f 331 364 363
f 332 333 365
f 332 365 364
f 333 334 366
f 333 366 365
f 334 335 367
f 334 367 366
f 335 336 368
f 335 368 367
f 336 337 369
f 336 369 368
f 337 338 370
f 337 370 369
f 338 339 371
f 338 371 370
f 339 340 372
f 339 372 371
f 340 341 373
f 340 373 372
f 341 342 374
f 341 374 373
f 342 343 375
f 342 375 374
f 343 344 376
f 343 376 375
f 344 345 377
f 344 377 376
f 345 346 378
f 345 378 377
f 346 347 379
f 346 379 378
f 347 348 380
f 347 380 379
f 348 349 381
f 348 381 380
f 349 350 382
f 349 382 381
f 350 351 383
f 350 383 382
f 351 352 384
f 351 384 383
f 352 353 385
f 352 385 384
f 353 322 354
f 353 354 385
f 354 355 387
f 354 387 386
f 355 356 388
f 355 388 387
f 356 357 389
f 356 389 388
f 357 358 390
f 357 390 389
f 358 359 391
f 358 391 390
f 359 360 392
f 359 392 391
f 360 361 393
f 360 393 392
f 361 362 394
f 361 394 393
f 362 363 395
f 362 395 394
f 363 364 396
f 363 396 395
f 364 365 397
f 364 397 396
f 365 366 398
f 365 398 397
f 366 367 399
f 366 399 398
f 367 368 400
f 367 400 399
f 368 369 401
f 368 401 400
f 369 370 402
f 369 402 401
f 370 371 403
f 370 403 402
f 371 372 404
f 371 404 403
f 372 373 405
f 372 405 404
f 373 374 406
f 373 406 405
f 374 375 407
f 374 407 406
f 375 376 408
f 375 408 407
f 376 377 409
f 376 409 408
f 377 378 410
f 377 410 409
f 378 379 411
f 378 411 410
f 379 380 412
f 379 412 411
f 380 381 413
f 380 413 412
f 381 382 414
f 381 414 413
f 382 383 415
f 382 415 414
f 383 384 416
f 383 416 415
f 384 385 417
f 384 417 416
f 385 354 386
f 385 386 417
f 386 387 419
f 386 419 418
f 387 388 420
f 387 420 419
f 388 389 421
f 388 421 420
f 389 390 422
f 389 422 421
f 390 391 423
f 390 423 422
f 391 392 424
f 391 424 423
f 392 393 425
f 392 425 424
f 393 394 426
f 393 426 425
f 394 395 427
f 394 427 426
f 395 396 428
f 395 428 427
f 396 397 429
f 396 429 428
f 397 398 430
f 397 430 429
f 398 399 431
f 398 431 430
f 399 400 432
f 399 432 431
f 400 401 433
f 400 433 432
f 401 402 434
f 401 434 433
f 402 403 435
f 402 435 434
f 403 404 436
f 403 436 435
f 404 405 437
f 404 437 436
f 405 406 438
f 405 438 437
f 406 407 439
f 406 439 438
f 407 408 440
f 407 440 439
f 408 409 441
f 408 441 440
f 409 410 442
f 409 442 441
f 410 411 443
f 410 443 442
f 411 412 444
f 411 444 443
f 412 413 445
f 412 445 444
f 413 414 446
f 413 446 445
f 414 415 447
f 414 447 446
f 415 416 448
f 415 448 447
f 416 417 449
f 416 449 448
f 417 386 418
f 417 418 449
f 418 419 451
f 418 451 450
f 419 420 452
f 419 452 451
f 420 421 453
f 420 453 452
f 421 422 454
f 421 454 453
f 422 423 455
f 422 455 454
f 423 424 456
f 423 456 455
f 424 425 457
f 424 457 456
f 425 426 458
f 425 458 457
f 426 427 459
f 426 459 458
f 427 428 460
f 427 460 459
f 428 429 461
f 428 461 460
f 429 430 462
f 429 462 461
f 430 431 463
f 430 463 462
f 431 432 464
f 431 464 463
f 432 433 465
f 432 465 464
f 433 434 466
f 433 466 465
f 434 435 467
f 434 467 466
f 435 436 468
f 435 468 467
f 436 437 469
f 436 469 468
f 437 438 470
f 437 470 469
f 438 439 471
f 438 471 470
f 439 440 472
f 439 472 471
f 440 441 473
f 440 473 472
f 441 442 474
f 441 474 473
f 442 443 475
f 442 475 474
f 443 444 476
f 443 476 475
f 444 445 477
f 444 477 476
f 445 446 478
f 445 478 477
f 446 447 479
f 446 479 478
f 447 448 480
f 447 480 479
f 448 449 481
f 448 481 480
f 449 418 450
f 449 450 481
f 450 451 483
f 450 483 482
f 451 452 484
f 451 484 483
f 452 453 485
f 452 485 484
f 453 454 486
f 453 486 485
f 454 455 487
f 454 487 486
f 455 456 488
f 455 488 487
f 456 457 489
f 456 489 488
f 457 458 490
f 457 490 489
f 458 459 491
f 458 491 490
f 459 460 492
f 459 492 491
f 460 461 493
f 460 493 492
f 461 462 494
f 461 494 493
f 462 463 495
f 462 495 494
f 463 464 496
f 463 496 495
f 464 465 497
f 464 497 496
f 465 466 498
f 465 498 497
f 466 467 499
f 466 499 498
f 467 468 500
f 467 500 499
f 468 469 501
f 468 501 500
f 469 470 502
f 469 502 501
f 470 471 503
f 470 503 502
f 471 472 504
f 471 504 503
f 472 473 505
f 472 505 504
f 473 474 506
f 473 506 505
f 474 475 507
f 474 507 506
f 475 476 508
f 475 508 507
f 476 477 509
f 476 509 508
f 477 478 510
f 477 510 509
f 478 479 511
f 478 511 510
f 479 480 512
f 479 512 511
f 480 481 513
f 480 513 512
f 481 450 482
f 481 482 513
f 482 483 515
f 482 515 514
f 483 484 516
f 483 516 515
f 484 485 517
f 484 517 516
f 485 486 518
f 485 518 517
f 486 487 519
f 486 519 518
f 487 488 520
f 487 520 519
f 488 489 521
f 488 521 520
f 489 490 522
f 489 522 521
f 490 491 523
f 490 523 522
f 491 492 524
f 491 524 523
f 492 493 525
f 492 525 524
f 493 494 526
f 493 526 525
f 494 495 527
f 494 527 526
f 495 496 528
f 495 528 527
f 496 497 529
f 496 529 528
f 497 498 530
f 497 530 529
f 498 499 531
f 498 531 530
f 499 500 532
f 499 532 531
f 500 501 533
f 500 533 532
f 501 502 534
f 501 534 533
f 502 503 535
f 502 535 534
f 503 504 536
f 503 536 535
f 504 505 537
f 504 537 536
f 505 506 538
f 505 538 537
f 506 507 539
f 506 539 538
f 507 508 540
f 507 540 539
f 508 509 541
f 508 541 540
f 509 510 542
f 509 542 541
f 510 511 543
f 510 543 542
f 511 512 544
f 511 544 543
f 512 513 545
f 512 545 544
f 513 482 514
f 513 514 545
f 514 515 547
f 514 547 546
f 515 516 548
f 515 548 547
f 516 517 549
f 516 549 548
f 517 518 550
f 517 550 549
f 518 519 551
f 518 551 550
f 519 520 552
f 519 552 551
f 520 521 553
f 520 553 552
f 521 522 554
f 521 554 553
f 522 523 555
f 522 555 554
f 523 524 556
f 523 556 555
f 524 525 557
f 524 557 556
f 525 526 558
f 525 558 557
f 526 527 559
f 526 559 558
f 527 528 560
f 527 560 559
f 528 529 561
f 528 561 560
f 529 530 562
f 529 562 561
f 530 531 563
f 530 563 562
f 531 532 564
f 531 564 563
f 532 533 565
f 532 565 564
f 533 534 566
f 533 566 565
f 534 535 567
f 534 567 566
f 535 536 568
f 535 568 567
f 536 537 569
f 536 569 568
f 537 538 570
f 537 570 569
f 538 539 571
f 538 571 570
f 539 540 572
f 539 572 571
f 540 541 573
f 540 573 572
f 541 542 574
f 541 574 573
f 542 543 575
f 542 575 574
f 543 544 576
f 543 576 575
f 544 545 577
f 544 577 576
f 545 514 546
f 545 546 577
f 546 547 579
f 546 579 578
f 547 548 580
f 547 580 579
f 548 549 581
f 548 581 580
f 549 550 582
f 549 582 581
f 550 551 583
f 550 583 582
f 551 552 584
f 551 584 583
f 552 553 585
f 552 585 584
f 553 554 586
f 553 586 585
f 554 555 587
f 554 587 586
f 555 556 588
f 555 588 587
f 556 557 589
f 556 589 588
f 557 558 590
f 557 590 589
f 558 559 591
f 558 591 590
f 559 560 592
f 559 592 591
f 560 561 593
f 560 593 592
f 561 562 594
f 561 594 593
f 562 563 595
f 562 595 594
f 563 564 596
f 563 596 595
f 564 565 597
f 564 597 596
f 565 566 598
f 565 598 597
f 566 567 599
f 566 599 598
f 567 568 600
f 567 600 599
f 568 569 601
f 568 601 600
f 569 570 602
f 569 602 601
f 570 571 603
f 570 603 602
f 571 572 604
f 571 604 603
f 572 573 605
f 572 605 604
f 573 574 606
f 573 606 605
f 574 575 607
f 574 607 606
f 575 576 608
f 575 608 607
f 576 577 609
f 576 609 608
f 577 546 578
f 577 578 609
f 578 579 611
f 578 611 610
f 579 580 612
f 579 612 611
f 580 581 613
f 580 613 612
f 581 582 614
f 581 614 613
f 582 583 615
f 582 615 614
f 583 584 616
f 583 616 615
f 584 585 617
f 584 617 616
f 585 586 618
f 585 618 617
f 586 587 619
f 586 619 618
f 587 588 620
f 587 620 619
f 588 589 621
f 588 621 620
f 589 590 622
f 589 622 621
f 590 591 623
f 590 623 622
f 591 592 624
f 591 624 623
f 592 593 625
f 592 625 624
f 593 594 626
f 593 626 625
f 594 595 627
f 594 627 626
f 595 596 628
f 595 628 627
f 596 597 629
f 596 629 628
f 597 598 630
f 597 630 629
f 598 599 631
f 598 631 630
f 599 600 632
f 599 632 631
f 600 601 633
f 600 633 632
f 601 602 634
f 601 634 633
f 602 603 635
f 602 635 634
f 603 604 636
f 603 636 635
f 604 605 637
f 604 637 636
f 605 606 638
f 605 638 637
f 606 607 639
f 606 639 638
f 607 608 640
f 607 640 639
f 608 609 641
f 608 641 640
f 609 578 610
f 609 610 641
f 610 611 643
f 610 643 642
f 611 612 644
f 611 644 643
f 612 613 645
f 612 645 644
f 613 614 646
f 613 646 645
f 614 615 647
f 614 647 646
f 615 616 648
f 615 648 647
f 616 617 649
f 616 649 648
f 617 618 650
f 617 650 649
f 618 619 651
f 618 651 650
f 619 620 652
f 619 652 651
f 620 621 653
f 620 653 652
f 621 622 654
f 621 654 653
f 622 623 655
f 622 655 654
f 623 624 656
f 623 656 655
f 624 625 657
f 624 657 656
f 625 626 658
f 625 658 657
f 626 627 659
f 626 659 658
f 627 628 660
f 627 660 659
f 628 629 661
f 628 661 660
f 629 630 662
f 629 662 661
f 630 631 663
f 630 663 662
f 631 632 664
f 631 664 663
f 632 633 665
f 632 665 664
f 633 634 666
f 633 666 665
f 634 635 667
f 634 667 666
f 635 636 668
f 635 668 667
f 636 637 669
f 636 669 668
f 637 638 670
f 637 670 669
f 638 639 671
f 638 671 670
f 639 640 672
f 639 672 671
f 640 641 673
f 640 673 672
f 641 610 642
f 641 642 673
f 642 643 675
f 642 675 674
f 643 644 676
f 643 676 675
f 644 645 677
f 644 677 676
f 645 646 678
f 645 678 677
f 646 647 679
f 646 679 678
f 647 648 680
f 647 680 679
f 648 649 681
f 648 681 680
f 649 650 682
f 649 682 681
f 650 651 683
f 650 683 682
f 651 652 684
f 651 684 683
f 652 653 685
f 652 685 684
f 653 654 686
f 653 686 685
f 654 655 687
f 654 687 686
f 655 656 688
f 655 688 687
f 656 657 689
f 656 689 688
f 657 658 690
f 657 690 689
f 658 659 691
f 658 691 690
f 659 660 692
f 659 692 691
f 660 661 693
f 660 693 692
f 661 662 694
f 661 694 693
f 662 663 695
f 662 695 694
f 663 664 696
f 663 696 695
f 664 665 697
f 664 697 696
f 665 666 698
f 665 698 697
f 666 667 699
f 666 699 698
f 667 668 700
f 667 700 699
f 668 669 701
f 668 701 700
f 669 670 702
f 669 702 701
f 670 671 703
f 670 703 702
f 671 672 704
f 671 704 703
f 672 673 705
f 672 705 704
f 673 642 674
f 673 674 705
f 674 675 707
f 674 707 706
f 675 676 708
f 675 708 707
f 676 677 709
f 676 709 708
f 677 678 710
f 677 710 709
f 678 679 711
f 678 711 710
f 679 680 712
f 679 712 711
f 680 681 713
f 680 713 712
f 681 682 714
f 681 714 713
f 682 683 715
f 682 715 714
f 683 684 716
f 683 716 715
f 684 685 717
f 684 717 716
f 685 686 718
f 685 718 717
f 686 687 719
f 686 719 718
f 687 688 720
f 687 720 719
f 688 689 721
f 688 721 720
f 689 690 722
f 689 722 721
f 690 691 723
f 690 723 722
f 691 692 724
f 691 724 723
f 692 693 725
f 692 725 724
f 693 694 726
f 693 726 725
f 694 695 727
f 694 727 726
f 695 696 728
f 695 728 727
f 696 697 729
f 696 729 728
f 697 698 730
f 697 730 729
f 698 699 731
f 698 731 730
f 699 700 732
f 699 732 731
f 700 701 733
f 700 733 732
f 701 702 734
f 701 734 733
f 702 703 735
f 702 735 734
f 703 704 736
f 703 736 735
f 704 705 737
f 704 737 736
f 705 674 706
f 705 706 737
f 706 707 739
f 706 739 738
f 707 708 740
f 707 740 739
f 708 709 741
f 708 741 740
f 709 710 742
f 709 742 741
f 710 711 743
f 710 743 742
f 711 712 744
f 711 744 743
f 712 713 745
f 712 745 744
f 713 714 746
f 713 746 745
f 714 715 747
f 714 747 746
f 715 716 748
f 715 748 747
f 716 717 749
f 716 749 748
f 717 718 750
f 717 750 749
f 718 719 751
f 718 751 750
f 719 720 752
f 719 752 751
f 720 721 753
f 720 753 752
f 721 722 754
f 721 754 753
f 722 723 755
f 722 755 754
f 723 724 756
f 723 756 755
f 724 725 757
f 724 757 756
f 725 726 758
f 725 758 757
f 726 727 759
f 726 759 758
f 727 728 760
f 727 760 759
f 728 729 761
f 728 761 760
f 729 730 762
f 729 762 761
f 730 731 763
f 730 763 762
f 731 732 764
f 731 764 763
f 732 733 765
f 732 765 764
f 733 734 766
f 733 766 765
f 734 735 767
f 734 767 766
f 735 736 768
f 735 768 767
f 736 737 769
f 736 769 768
f 737 706 738
f 737 738 769
f 738 739 771
f 738 771 770
f 739 740 772
f 739 772 771
f 740 741 773
f 740 773 772
f 741 742 774
f 741 774 773
f 742 743 775
f 742 775 774
f 743 744 776
f 743 776 775
f 744 745 777
f 744 777 776
f 745 746 778
f 745 778 777
f 746 747 779
f 746 779 778
f 747 748 780
f 747 780 779
f 748 749 781
f 748 781 780
f 749 750 782
f 749 782 781
f 750 751 783
f 750 783 782
f 751 752 784
f 751 784 783
f 752 753 785
f 752 785 784
f 753 754 786
f 753 786 785
f 754 755 787
f 754 787 786
f 755 756 788
f 755 788 787
f 756 757 789
f 756 789 788
f 757 758 790
f 757 790 789
f 758 759 791
f 758 791 790
f 759 760 792
f 759 792 791
f 760 761 793
f 760 793 792
f 761 762 794
f 761 794 793
f 762 763 795
f 762 795 794
f 763 764 796
f 763 796 795
f 764 765 797
f 764 797 796
f 765 766 798
f 765 798 797
f 766 767 799
f 766 799 798
f 767 768 800
f 767 800 799
f 768 769 801
f 768 801 800
f 769 738 770
f 769 770 801
f 770 771 803
f 770 803 802
f 771 772 804
f 771 804 803
f 772 773 805
f 772 805 804
f 773 774 806
f 773 806 805
f 774 775 807
f 774 807 806
f 775 776 808
f 775 808 807
f 776 777 809
f 776 809 808
f 777 778 810
f 777 810 809
f 778 779 811
f 778 811 810
f 779 780 812
f 779 812 811
f 780 781 813
f 780 813 812
f 781 782 814
f 781 814 813
f 782 783 815
f 782 815 814
f 783 784 816
f 783 816 815
f 784 785 817
f 784 817 816
f 785 786 818
f 785 818 817
f 786 787 819
f 786 819 818
f 787 788 820
f 787 820 819
f 788 789 821
f 788 821 820
f 789 790 822
f 789 822 821
f 790 791 823
f 790 823 822
f 791 792 824
f 791 824 823
f 792 793 825
f 792 825 824
f 793 794 826
f 793 826 825
f 794 795 827
f 794 827 826
f 795 796 828
f 795 828 827
f 796 797 829
f 796 829 828
f 797 798 830
f 797 830 829
f 798 799 831
f 798 831 830
f 799 800 832
f 799 832 831
f 800 801 833
f 800 833 832
f 801 770 802
f 801 802 833
f 802 803 835
f 802 835 834
f 803 804 836
f 803 836 835
f 804 805 837
f 804 837 836
f 805 806 838
f 805 838 837
f 806 807 839
f 806 839 838
f 807 808 840
f 807 840 839
f 808 809 841
f 808 841 840
f 809 810 842
f 809 842 841
f 810 811 843
f 810 843 842
f 811 812 844
f 811 844 843
f 812 813 845
f 812 845 844
f 813 814 846
f 813 846 845
f 814 815 847
f 814 847 846
f 815 816 848
f 815 848 847
f 816 817 849
f 816 849 848
f 817 818 850
f 817 850 849
f 818 819 851
f 818 851 850
f 819 820 852
f 819 852 851
f 820 821 853
f 820 853 852
f 821 822 854
f 821 854 853
f 822 823 855
f 822 855 854
f 823 824 856
f 823 856 855
f 824 825 857
f 824 857 856
f 825 826 858
f 825 858 857
f 826 827 859
f 826 859 858
f 827 828 860
f 827 860 859
f 828 829 861
f 828 861 860
f 829 830 862
f 829 862 861
f 830 831 863
f 830 863 862
f 831 832 864
f 831 864 863
f 832 833 865
f 832 865 864
f 833 802 834
f 833 834 865
f 866 834 835
f 866 835 836
f 866 836 837
f 866 837 838
f 866 838 839
f 866 839 840
f 866 840 841
f 866 841 842
f 866 842 843
f 866 843 844
f 866 844 845
f 866 845 846
f 866 846 847
f 866 847 848
f 866 848 849
f 866 849 850
f 866 850 851
f 866 851 852
f 866 852 853
f 866 853 854
f 866 854 855
f 866 855 856
f 866 856 857
f 866 857 858
f 866 858 859
f 866 859 860
f 866 860 861
f 866 861 862
f 866 862 863
f 866 863 864
f 866 864 865
f 866 865 834
